<?xml version="1.0" encoding="utf-8"?>
<!-- Generator: Adobe Illustrator 25.2.0, SVG Export Plug-In . SVG Version: 6.00 Build 0)  -->
<svg version="1.1" id="Layer_1" xmlns="http://www.w3.org/2000/svg" xmlns:xlink="http://www.w3.org/1999/xlink" x="0px" y="0px"
	 viewBox="0 0 60 60" style="enable-background:new 0 0 60 60;" xml:space="preserve">
<style type="text/css">
	.st0{fill:#050505;}
</style>
<g>
	<g id="primary_2_">
		<path class="st0" d="M30,59.8C13.6,59.8,0.2,46.4,0.2,30S13.6,0.2,30,0.2S59.8,13.6,59.8,30S46.4,59.8,30,59.8z M30,6.2
			C16.9,6.2,6.2,16.9,6.2,30S16.9,53.8,30,53.8S53.8,43.1,53.8,30S43.1,6.2,30,6.2z M30,38.9c-1.6,0-3-1.3-3-3
			c0-4.5,3.3-6.1,5.5-7.2c2.3-1.1,3.5-1.7,3.5-4.7c0-0.7-0.2-1.7-1.5-2.5c-1.1-0.7-2.8-1.2-4.5-1.2c-2.1,0-6,0.8-6,3.7
			c0,1.6-1.3,3-3,3s-3-1.3-3-3c0-5.6,5-9.7,11.9-9.7s11.9,4.1,11.9,9.7c0,6.8-4.3,8.8-6.8,10.1C33,35.1,33,35.3,33,36
			C33,37.6,31.6,38.9,30,38.9z"/>
	</g>
	<g id="secondary_1_">
		<path class="st0" d="M30,48.6c-1,0-1.9-0.4-2.6-1.1c-0.7-0.7-1.1-1.7-1.1-2.6c0-1,0.4-1.9,1.1-2.6c1.4-1.4,3.9-1.4,5.3,0
			c0.7,0.7,1.1,1.7,1.1,2.6c0,1-0.4,1.9-1.1,2.6C31.9,48.2,31,48.6,30,48.6z"/>
	</g>
</g>
</svg>
