<?xml version="1.0" encoding="utf-8"?>
<!-- Generator: Adobe Illustrator 25.2.0, SVG Export Plug-In . SVG Version: 6.00 Build 0)  -->
<svg version="1.1" id="Layer_1" xmlns="http://www.w3.org/2000/svg" xmlns:xlink="http://www.w3.org/1999/xlink" x="0px" y="0px"
	 viewBox="0 0 80 80" style="enable-background:new 0 0 80 80;" xml:space="preserve">
<style type="text/css">
	.st0{fill:#070707;}
</style>
<g>
	<path class="st0" d="M69.2,32H10.8c-4.9,0-8.9-4-8.9-8.9v-7c0-4.9,4-8.9,8.9-8.9h58.4c4.9,0,8.9,4,8.9,8.9v7
		C78.1,28,74.1,32,69.2,32z"/>
	<path class="st0" d="M35.3,72.8H10.8c-4.9,0-8.9-4-8.9-8.9v-7c0-4.9,4-8.9,8.9-8.9h24.5c4.9,0,8.9,4,8.9,8.9v7
		C44.2,68.8,40.2,72.8,35.3,72.8z"/>
	<path class="st0" d="M69.2,72.8h-7c-4.9,0-8.9-4-8.9-8.9v-7c0-4.9,4-8.9,8.9-8.9h7c4.9,0,8.9,4,8.9,8.9v7
		C78.1,68.8,74.1,72.8,69.2,72.8z"/>
</g>
</svg>
