<?xml version="1.0" encoding="utf-8"?>
<!-- Generator: Adobe Illustrator 25.2.0, SVG Export Plug-In . SVG Version: 6.00 Build 0)  -->
<svg version="1.1" id="Layer_1" xmlns="http://www.w3.org/2000/svg" xmlns:xlink="http://www.w3.org/1999/xlink" x="0px" y="0px"
	 viewBox="0 0 60 60" style="enable-background:new 0 0 60 60;" xml:space="preserve">
<style type="text/css">
	.st0{fill:#1E1E1E;}
</style>
<g id="primary_49_">
	<path class="st0" d="M21.1,59.8H6.2c-3.3,0-6-2.7-6-6V6.2c0-3.3,2.7-6,6-6H33c0.8,0,1.5,0.3,2.1,0.9L47,13c0.6,0.6,0.9,1.3,0.9,2.1
		V33c0,1.6-1.3,3-3,3s-3-1.3-3-3V16.3L31.7,6.2H6.2v47.7h14.9c1.6,0,3,1.3,3,3C24,58.5,22.7,59.8,21.1,59.8z M50.9,59.8
		c-0.8,0-1.5-0.3-2.1-0.9c-1.2-1.2-1.2-3.1,0-4.2l3.9-3.9L48.8,47c-1.2-1.2-1.2-3.1,0-4.2c1.2-1.2,3.1-1.2,4.2,0l6,6
		c1.2,1.2,1.2,3.1,0,4.2l-6,6C52.4,59.5,51.6,59.8,50.9,59.8z M38.9,59.8c-0.8,0-1.5-0.3-2.1-0.9l-6-6c-1.2-1.2-1.2-3.1,0-4.2l6-6
		c1.2-1.2,3.1-1.2,4.2,0c1.2,1.2,1.2,3.1,0,4.2l-3.9,3.9l3.9,3.9c1.2,1.2,1.2,3.1,0,4.2C40.5,59.5,39.7,59.8,38.9,59.8z"/>
</g>
</svg>
