<?xml version="1.0" encoding="utf-8"?>
<!-- Generator: Adobe Illustrator 25.2.0, SVG Export Plug-In . SVG Version: 6.00 Build 0)  -->
<svg version="1.1" id="Layer_1" xmlns="http://www.w3.org/2000/svg" xmlns:xlink="http://www.w3.org/1999/xlink" x="0px" y="0px"
	 viewBox="0 0 60 60" style="enable-background:new 0 0 60 60;" xml:space="preserve">
<style type="text/css">
	.st0{fill:#050505;}
</style>
<g>
	<path class="st0" d="M29.6,59.8C15.8,59.8,3.9,50.4,0.7,37c-0.3-1.3,0.3-2.6,1.4-3.3c1.1-0.7,2.6-0.5,3.5,0.4
		c3.3,3.1,7.6,4.8,12.1,4.8c4.7,0,9.3-1.9,12.6-5.2c3.4-3.4,5.2-7.9,5.2-12.6c0-6.2-3.3-12.1-8.7-15.3c-1.1-0.7-1.7-2.1-1.3-3.3
		s1.5-2.2,2.9-2.2h1.2C46,0.2,59.4,13.6,59.4,30C59.4,46.4,46.1,59.8,29.6,59.8C29.7,59.8,29.6,59.8,29.6,59.8z M10,43.6
		c4.3,6.3,11.6,10.3,19.7,10.3c13.1,0,23.8-10.7,23.7-23.9c0,0,0,0,0,0c0-10.5-6.8-19.4-16.2-22.6c2.8,4,4.3,8.7,4.3,13.7
		c0,6.4-2.5,12.3-7,16.8s-10.4,6.9-16.8,7C15.1,44.9,12.5,44.4,10,43.6z M59.4,30L59.4,30L59.4,30z"/>
</g>
</svg>
