<?xml version="1.0" encoding="utf-8"?>
<!-- Generator: Adobe Illustrator 25.2.0, SVG Export Plug-In . SVG Version: 6.00 Build 0)  -->
<svg version="1.1" id="Layer_1" xmlns="http://www.w3.org/2000/svg" xmlns:xlink="http://www.w3.org/1999/xlink" x="0px" y="0px"
	 viewBox="0 0 80 80" style="enable-background:new 0 0 80 80;" xml:space="preserve">
<style type="text/css">
	.st0{fill:#070707;}
</style>
<path class="st0" d="M41.4,74.5c-17.9,0-32.8-13.5-34.7-31.1C4.8,24.8,17.9,8.1,36.3,5.5c0.1,0,0.4,0,0.5,0c1.2-0.1,2,0.3,2.4,1
	c0.4,0.9,0.3,1.7-0.5,2.5c-1.3,1.3-2.5,2.7-3.5,4.4c-10.1,15.8-0.5,37.1,17.9,40.3c5.9,1,11.6,0.1,17-2.6c1.6-0.8,3-0.3,3.3,1.2
	c0.1,0.5,0,0.9-0.3,1.4c-5.5,11.8-14.6,18.6-27.5,20.5C44.2,74.5,42.8,74.5,41.4,74.5z"/>
</svg>
