<?xml version="1.0" encoding="utf-8"?>
<!-- Generator: Adobe Illustrator 25.2.0, SVG Export Plug-In . SVG Version: 6.00 Build 0)  -->
<svg version="1.1" id="Layer_1" xmlns="http://www.w3.org/2000/svg" xmlns:xlink="http://www.w3.org/1999/xlink" x="0px" y="0px"
	 viewBox="0 0 60 60" style="enable-background:new 0 0 60 60;" xml:space="preserve">
<style type="text/css">
	.st0{fill:#4800E5;}
</style>
<g>
	<g id="primary_8_">
		<path class="st0" d="M41.9,53.8c-1.3,0-2.5-0.8-2.8-2.1l-2.3-7.4c-2.2,0.4-4.5,0.6-6.8,0.6c-2.3,0-4.6-0.2-6.8-0.6l-2.3,7.4
			c-0.4,1.3-1.6,2.2-3,2.1C11.5,53.5,5.4,50.7,1,45.9c-0.5-0.6-0.8-1.3-0.8-2c0.1-10.6,2-21,5.6-31c0.6-1.7,1.9-3,3.6-3.6
			c0.1,0,0.1,0,0.2-0.1c6.6-2,13.5-3,20.4-3.1c7,0.1,13.8,1.1,20.4,3.1c0,0,0.1,0,0.1,0c1.7,0.6,3,1.9,3.6,3.5
			c3.7,10,5.6,20.4,5.6,31c0,0.8-0.3,1.5-0.8,2c-4.4,4.8-10.4,7.6-16.9,7.9C42,53.8,41.9,53.8,41.9,53.8z M42.6,42.9l1.5,4.7
			c3.7-0.6,7.1-2.3,9.8-4.9c-0.2-9.5-2-18.8-5.2-27.8c-6-1.8-12.3-2.7-18.6-2.8c-6.2,0.1-12.5,1-18.5,2.8c-3.3,8.9-5,18.3-5.2,27.8
			c2.7,2.6,6.1,4.3,9.8,4.9l1.5-4.7c-1.2-0.4-2.3-0.8-3.4-1.2c-1.5-0.6-2.2-2.4-1.6-3.9c0.6-1.5,2.4-2.2,3.9-1.6
			c4.4,1.8,9,2.7,13.8,2.8c4.7,0,9.3-1,13.7-2.8c1.5-0.6,3.3,0.1,3.9,1.6c0.6,1.5-0.1,3.3-1.6,3.9C44.9,42.1,43.7,42.6,42.6,42.9z"
			/>
	</g>
	<g id="primary-upstroke_3_">
		<path class="st0" d="M38.9,27c-0.8,0-1.6-0.3-2.1-0.9C36.3,25.6,36,24.8,36,24s0.3-1.6,0.9-2.1c1.1-1.1,3.1-1.1,4.2,0
			c0.6,0.6,0.9,1.3,0.9,2.1s-0.3,1.6-0.9,2.1C40.5,26.7,39.7,27,38.9,27z"/>
	</g>
	<g id="primary-upstroke-2_1_">
		<path class="st0" d="M21.1,27c-0.8,0-1.6-0.3-2.1-0.9c-0.6-0.6-0.9-1.3-0.9-2.1s0.3-1.6,0.9-2.1c1.1-1.1,3.1-1.1,4.2,0
			c0.6,0.6,0.9,1.3,0.9,2.1s-0.3,1.5-0.9,2.1C22.6,26.7,21.9,27,21.1,27z"/>
	</g>
</g>
</svg>
