<?xml version="1.0" encoding="utf-8"?>
<!-- Generator: Adobe Illustrator 25.2.0, SVG Export Plug-In . SVG Version: 6.00 Build 0)  -->
<svg version="1.1" id="Layer_1" xmlns="http://www.w3.org/2000/svg" xmlns:xlink="http://www.w3.org/1999/xlink" x="0px" y="0px"
	 viewBox="0 0 60 60" style="enable-background:new 0 0 60 60;" xml:space="preserve">
<style type="text/css">
	.st0{fill:#1E1E1E;}
</style>
<g id="primary_46_">
	<path class="st0" d="M41.9,59.8H6.2c-3.3,0-6-2.7-6-6V12.1c0-3.3,2.7-6,6-6h6c0-3.3,2.7-6,6-6H30c3.3,0,6,2.7,6,6h6
		c3.3,0,6,2.7,6,6v6.3c2-0.6,4.4-0.2,6,1.4l4.2,4.2c0,0,0,0,0,0c2.3,2.3,2.3,6,0,8.3L47.9,42.6v11.3C47.9,57.1,45.2,59.8,41.9,59.8z
		 M6.2,12.1v41.7h35.8v-6c-0.2,0-0.4,0.1-0.6,0.1H33c-1.6,0-3-1.3-3-3v-8.3c0-0.8,0.3-1.5,0.9-2.1l11.1-11.1V12.1h-6v3
		c0,1.6-1.3,3-3,3H15.1c-1.6,0-3-1.3-3-3v-3H6.2z M36,41.9h4.1l13.7-13.7L49.7,24L36,37.8V41.9z M18.1,12.1H30v-6l-11.9,0V12.1z"/>
</g>
</svg>
