<?xml version="1.0" encoding="utf-8"?>
<!-- Generator: Adobe Illustrator 25.2.0, SVG Export Plug-In . SVG Version: 6.00 Build 0)  -->
<svg version="1.1" id="Layer_1" xmlns="http://www.w3.org/2000/svg" xmlns:xlink="http://www.w3.org/1999/xlink" x="0px" y="0px"
	 viewBox="0 0 60 60" style="enable-background:new 0 0 60 60;" xml:space="preserve">
<style type="text/css">
	.st0{fill:#0056D3;}
</style>
<g id="primary_10_">
	<path class="st0" d="M53.8,59.8H6.2c-3.3,0-6-2.7-6-6V6.2c0-3.3,2.7-6,6-6h47.6c3.3,0,6,2.7,6,6v47.6
		C59.8,57.1,57.1,59.8,53.8,59.8z M36,53.8h17.9V6.2H6.2v47.6H30V38.9h-6c-1.6,0-3-1.3-3-3s1.3-3,3-3h6V24c0-4.9,4-8.9,8.9-8.9h6
		c1.6,0,3,1.3,3,3s-1.3,3-3,3h-6c-1.6,0-3,1.3-3,3V33h6c1.6,0,3,1.3,3,3s-1.3,3-3,3h-6V53.8z"/>
</g>
</svg>
