<?xml version="1.0" encoding="utf-8"?>
<!-- Generator: Adobe Illustrator 25.2.0, SVG Export Plug-In . SVG Version: 6.00 Build 0)  -->
<svg version="1.1" id="Layer_1" xmlns="http://www.w3.org/2000/svg" xmlns:xlink="http://www.w3.org/1999/xlink" x="0px" y="0px"
	 viewBox="0 0 80 80" style="enable-background:new 0 0 80 80;" xml:space="preserve">
<style type="text/css">
	.st0{fill:#070707;}
</style>
<g id="Iconly_x2F_Bold_x2F_Home_1_">
	<g>
		<g id="Home_9_" transform="translate(2.500000, 2.000000)">
			<path class="st0" d="M26.3,72.4v-12c0-3.1,2.5-5.5,5.6-5.5h11.3c1.5,0,2.9,0.6,3.9,1.6c1,1,1.6,2.4,1.6,3.9v12
				c0,1.3,0.5,2.5,1.4,3.4c0.9,0.9,2.1,1.4,3.4,1.4h7.7c3.6,0,7-1.4,9.6-3.9c2.5-2.5,4-5.9,4-9.5V29.6c0-2.9-1.3-5.6-3.5-7.5
				L45.1,1.5C40.5-2.2,34-2.1,29.6,1.7L4.1,22.2c-2.3,1.8-3.7,4.5-3.8,7.5v34.1c0,7.4,6.1,13.4,13.5,13.4h7.5c2.7,0,4.8-2.1,4.8-4.8
				L26.3,72.4z"/>
		</g>
	</g>
</g>
</svg>
