<?xml version="1.0" encoding="utf-8"?>
<!-- Generator: Adobe Illustrator 25.2.0, SVG Export Plug-In . SVG Version: 6.00 Build 0)  -->
<svg version="1.1" id="Layer_1" xmlns="http://www.w3.org/2000/svg" xmlns:xlink="http://www.w3.org/1999/xlink" x="0px" y="0px"
	 viewBox="0 0 60 60" style="enable-background:new 0 0 60 60;" xml:space="preserve">
<style type="text/css">
	.st0{fill:url(#SVGID_1_);}
	.st1{fill:url(#SVGID_2_);}
</style>
<g>
	<g id="primary_7_">
		<linearGradient id="SVGID_1_" gradientUnits="userSpaceOnUse" x1="1.0816" y1="61.3584" x2="61.2225" y2="-3.8569">
			<stop  offset="0" style="stop-color:#DD0030"/>
			<stop  offset="0.9944" style="stop-color:#C06305"/>
		</linearGradient>
		<path class="st0" d="M53.8,59.8H6.2c-3.3,0-6-2.7-6-6V6.2c0-3.3,2.7-6,6-6h47.6c3.3,0,6,2.7,6,6v47.6
			C59.8,57.1,57.1,59.8,53.8,59.8z M6.2,6.2v47.6l47.6,0l0-47.6H6.2z M30,41.9c-6.6,0-11.9-5.3-11.9-11.9S23.4,18.1,30,18.1
			S41.9,23.4,41.9,30S36.6,41.9,30,41.9z M30,24c-3.3,0-6,2.7-6,6s2.7,6,6,6s6-2.7,6-6S33.3,24,30,24z"/>
	</g>
	<g id="primary-upstroke_2_">
		<linearGradient id="SVGID_2_" gradientUnits="userSpaceOnUse" x1="1.7077" y1="61.9357" x2="61.8486" y2="-3.2796">
			<stop  offset="0" style="stop-color:#DD0030"/>
			<stop  offset="0.9944" style="stop-color:#C06305"/>
		</linearGradient>
		<path class="st1" d="M44.9,18.1c-0.8,0-1.6-0.3-2.1-0.9c-0.6-0.6-0.9-1.3-0.9-2.1c0-0.8,0.3-1.5,0.9-2.1c1.1-1.1,3.1-1.1,4.2,0
			c0.6,0.6,0.9,1.3,0.9,2.1c0,0.8-0.3,1.6-0.9,2.1C46.4,17.8,45.7,18.1,44.9,18.1z"/>
	</g>
</g>
</svg>
