<?xml version="1.0" encoding="utf-8"?>
<!-- Generator: Adobe Illustrator 25.2.0, SVG Export Plug-In . SVG Version: 6.00 Build 0)  -->
<svg version="1.1" id="Layer_1" xmlns="http://www.w3.org/2000/svg" xmlns:xlink="http://www.w3.org/1999/xlink" x="0px" y="0px"
	 viewBox="0 0 60 60" style="enable-background:new 0 0 60 60;" xml:space="preserve">
<style type="text/css">
	.st0{fill:#1E1E1E;}
</style>
<g id="primary_47_">
	<path class="st0" d="M53.8,59.8H9.1c-3.3,0-6-2.7-6-6v-8.9c-1.6,0-3-1.3-3-3c0-1.6,1.3-3,3-3v-6c-1.6,0-3-1.3-3-3s1.3-3,3-3v-6
		c-1.6,0-3-1.3-3-3s1.3-3,3-3V6.2c0-3.3,2.7-6,6-6h44.7c3.3,0,6,2.7,6,6v47.7C59.8,57.1,57.1,59.8,53.8,59.8z M9.1,44.9v8.9l44.7,0
		l0-47.7H9.1v8.9c1.6,0,3,1.3,3,3s-1.3,3-3,3v6c1.6,0,3,1.3,3,3s-1.3,3-3,3v6c1.6,0,3,1.3,3,3C12.1,43.6,10.8,44.9,9.1,44.9z
		 M44.9,30H21.1c-1.6,0-3-1.3-3-3V15.1c0-1.6,1.3-3,3-3h23.8c1.6,0,3,1.3,3,3V27C47.9,28.7,46.5,30,44.9,30z M24,24h17.9v-6H24V24z"
		/>
</g>
</svg>
