<?xml version="1.0" encoding="utf-8"?>
<!-- Generator: Adobe Illustrator 25.2.0, SVG Export Plug-In . SVG Version: 6.00 Build 0)  -->
<svg version="1.1" id="Layer_1" xmlns="http://www.w3.org/2000/svg" xmlns:xlink="http://www.w3.org/1999/xlink" x="0px" y="0px"
	 viewBox="0 0 80 80" style="enable-background:new 0 0 80 80;" xml:space="preserve">
<style type="text/css">
	.st0{fill:#070707;}
	.st1{display:none;fill:#FFFFFF;}
	.st2{display:none;}
	.st3{display:inline;fill:#FFFFFF;}
	.st4{display:inline;}
	.st5{fill:#FFFFFF;}
</style>
<path class="st0" d="M61.8,78.2H18.2c-9,0-16.4-7.3-16.4-16.4V18.2c0-9,7.3-16.4,16.4-16.4h43.6c9,0,16.4,7.3,16.4,16.4v43.6
	C78.2,70.9,70.9,78.2,61.8,78.2z"/>
<path class="st1" d="M41.1,66.4c-13.7,0-25.1-10.3-26.5-23.8c-1.5-14.2,8.5-27,22.6-29c0.1,0,0.3,0,0.4,0c0.9-0.1,1.5,0.2,1.8,0.8
	c0.3,0.7,0.2,1.3-0.4,1.9c-1,1-1.9,2.1-2.7,3.4C28.6,31.8,35.9,48.1,50,50.5c4.5,0.8,8.9,0.1,13-2c1.2-0.6,2.3-0.2,2.5,0.9
	c0.1,0.4,0,0.7-0.2,1.1c-4.2,9-11.2,14.2-21,15.7C43.2,66.4,42.1,66.4,41.1,66.4z"/>
<g class="st2">
	<path class="st3" d="M40,15.4c-0.7,0-1.2-0.5-1.2-1.2V9.3c0-0.7,0.5-1.2,1.2-1.2s1.2,0.5,1.2,1.2v4.9C41.2,14.8,40.7,15.4,40,15.4z
		"/>
</g>
<g class="st2">
	<g class="st4">
		<path class="st5" d="M63.4,33.9h-4.9c-0.7,0-1.2-0.5-1.2-1.2c0-0.7,0.5-1.2,1.2-1.2h4.9c0.7,0,1.2,0.5,1.2,1.2
			C64.6,33.4,64.1,33.9,63.4,33.9z"/>
	</g>
	<g class="st4">
		<path class="st5" d="M21.4,33.9h-4.9c-0.7,0-1.2-0.5-1.2-1.2c0-0.7,0.5-1.2,1.2-1.2h4.9c0.7,0,1.2,0.5,1.2,1.2
			C22.7,33.4,22.1,33.9,21.4,33.9z"/>
	</g>
</g>
<g class="st2">
	<g class="st4">
		<path class="st5" d="M53.1,20.8c-0.3,0-0.6-0.1-0.9-0.4c-0.5-0.5-0.5-1.2,0-1.7l3.4-3.4c0.5-0.5,1.2-0.5,1.7,0
			c0.5,0.5,0.5,1.2,0,1.7L54,20.5C53.7,20.7,53.4,20.8,53.1,20.8z"/>
	</g>
	<g class="st4">
		<path class="st5" d="M23.4,50.5c-0.3,0-0.6-0.1-0.9-0.4c-0.5-0.5-0.5-1.2,0-1.7L26,45c0.5-0.5,1.2-0.5,1.7,0
			c0.5,0.5,0.5,1.2,0,1.7l-3.4,3.4C24.1,50.4,23.8,50.5,23.4,50.5z"/>
	</g>
</g>
<g class="st2">
	<g class="st4">
		<path class="st5" d="M56.6,50.5c-0.3,0-0.6-0.1-0.9-0.4l-3.4-3.4c-0.5-0.5-0.5-1.2,0-1.7c0.5-0.5,1.2-0.5,1.7,0l3.4,3.4
			c0.5,0.5,0.5,1.2,0,1.7C57.2,50.4,56.9,50.5,56.6,50.5z"/>
	</g>
	<g class="st4">
		<path class="st5" d="M26.9,20.8c-0.3,0-0.6-0.1-0.9-0.4L22.6,17c-0.5-0.5-0.5-1.2,0-1.7c0.5-0.5,1.2-0.5,1.7,0l3.4,3.4
			c0.5,0.5,0.5,1.2,0,1.7C27.5,20.7,27.2,20.8,26.9,20.8z"/>
	</g>
</g>
<g>
	<path class="st5" d="M54.2,34.8c-0.7,1.6-1.7,3.1-3,4.4c-1.6,1.5-2.2,3.4-2.4,5.5c0,0.5-0.1,0.9-0.1,1.4v3.1c0,0.3,0,0.7-0.2,1
		c-0.3,1-1,1.8-2,2.2c-0.4,0.2-0.9,0.3-1.4,0.3H34.8c-0.5,0-1-0.1-1.4-0.3c-0.9-0.4-1.7-1.2-2-2.2c-0.1-0.3-0.2-0.7-0.2-1v-3.1
		c0-0.5-0.1-1-0.1-1.5c-0.2-2-0.9-3.8-2.4-5.4c-2.9-3.2-4.4-7-4.3-11.3c0.1-3.3,1.3-6.2,3.4-8.7c2.7-3.2,6.2-5.1,10.3-5.6
		c4.6-0.5,8.7,0.8,12.2,3.8c2.5,2.1,4.1,4.8,4.9,8C56,28.6,55.6,31.7,54.2,34.8z"/>
	<path class="st5" d="M40,58.5c-1.6,0-3.1,0-4.7,0c-0.8,0-1.4-0.5-1.4-1.2c0-0.7,0.5-1.3,1.4-1.3c3.1,0,6.3,0,9.4,0
		c0.8,0,1.4,0.5,1.4,1.2c0,0.7-0.6,1.2-1.4,1.2C43.1,58.5,41.5,58.5,40,58.5z"/>
	<path class="st5" d="M40,62.6c-1.6,0-3.1,0-4.7,0c-0.8,0-1.4-0.5-1.4-1.2c0-0.7,0.5-1.3,1.4-1.3c3.1,0,6.3,0,9.4,0
		c0.8,0,1.4,0.5,1.4,1.2c0,0.7-0.6,1.2-1.4,1.2C43.1,62.6,41.5,62.6,40,62.6z"/>
	<path class="st5" d="M40,66.6c-1.1,0-2.1,0-3.2,0c-0.6,0-0.9-0.5-0.9-1.1c0-0.7,0.4-1.2,0.9-1.2c2.1,0,4.2,0,6.4,0
		c0.6,0,0.9,0.5,0.9,1.1c0,0.7-0.4,1.2-0.9,1.2C42.1,66.6,41,66.6,40,66.6z"/>
</g>
</svg>
