<?xml version="1.0" encoding="utf-8"?>
<!-- Generator: Adobe Illustrator 25.2.0, SVG Export Plug-In . SVG Version: 6.00 Build 0)  -->
<svg version="1.1" id="Layer_1" xmlns="http://www.w3.org/2000/svg" xmlns:xlink="http://www.w3.org/1999/xlink" x="0px" y="0px"
	 viewBox="0 0 80 80" style="enable-background:new 0 0 80 80;" xml:space="preserve">
<style type="text/css">
	.st0{fill:#070707;}
	.st1{fill:#FFFFFF;}
</style>
<g>
	<g>
		<path class="st0" d="M19.8,21.1c-0.3,0.3-0.7,0.6-1,0.9c-0.2,0.2-0.3,0.3-0.5,0.3C18.7,21.9,19.2,21.5,19.8,21.1z"/>
		<path class="st0" d="M32.1,49.1c-0.4,0.3-6.7-1.5-7.3-2C25.3,46.8,31.6,48.6,32.1,49.1z"/>
		<path class="st0" d="M32.7,55.2l-3.1,0.2l-4.9-1.5L22.3,52l3.1-0.2l1.3,0.4c-0.1,0.2-0.1,0.4-0.1,0.6c0,1,0.8,1.9,1.9,1.9
			c0.9,0,1.6-0.6,1.8-1.4l0.1,0L32.7,55.2z"/>
		<path class="st0" d="M50.1,69.9c-0.2,0.2-0.3,0.3-0.5,0.5c-2.3,1.4-4.9,2.1-7.5,2.6c-4.3,0.7-8.2-0.6-12-2.4
			c-0.1,0-0.2-0.1-0.3-0.2c-0.1-0.1-0.1-0.2-0.2-0.3c0.1,0,0.3-0.1,0.4-0.1c0.6,0.3,1.2,0.5,1.8,0.8c0.4,0.2,0.6,0.1,0.7-0.3
			c0.3-0.7,0.6-1.4,0.9-2.2c0.1,0,0.2,0,0.3,0c0,0.7-0.1,1.4-0.1,2.1c0,1,0,1,0.9,1.3c3.3,1.2,6.6,1,9.9,0.2c0.6-0.1,0.8-0.4,0.7-1
			c-0.2-0.8-0.2-1.7-0.3-2.5c0.1,0,0.1,0,0.2-0.1c0.3,0.6,0.5,1.2,0.8,1.8c0.5,1.3,0.5,1.3,1.8,0.7c0.6-0.3,1.2-0.7,1.8-1
			c0.2-0.1,0.4-0.1,0.6-0.2C50,69.7,50.1,69.8,50.1,69.9z"/>
		<path class="st0" d="M51.6,39.3c-0.5,0.6-6.8,2.5-7.2,2.3C44.7,41.1,50.9,39,51.6,39.3z"/>
		<path class="st0" d="M54.9,52l-2.4,1.9l-4.9,1.5l-3.1-0.2l2.2-1.7c0.3,0.7,1,1.1,1.7,1.1c1,0,1.9-0.8,1.9-1.9c0-0.2,0-0.3-0.1-0.5
			l1.7-0.5L54.9,52z"/>
		<path class="st0" d="M68,29.8c1.7-3.6,3.4-7.2,3.7-11.2c0.3-3.8-0.1-7.5-1.2-11.2c-0.6-2.2-1.4-4.4-2.2-6.5
			c-0.1-0.2-0.2-0.3-0.2-0.5c0,0-0.1,0-0.1,0c0,0.2,0,0.4,0,0.6c0.3,2.4,0.6,4.7,0.8,7.1c0.2,2.6-0.7,4.9-1.8,7.1
			c-1.3,2.5-3,4.8-4.9,6.9c-0.1,0.1-0.2,0.2-0.2,0.2c-5.8-5.1-13.4-8.2-21.7-8.2c-7.6,0-14.6,2.6-20.2,6.9c0,0,0,0-0.1,0.1l0,0
			c-0.3,0.3-0.7,0.6-1,0.9c-0.2,0.2-0.3,0.3-0.5,0.3c-0.1,0-0.3-0.1-0.5-0.3c-1.9-2.1-3.6-4.4-4.9-6.9c-1.2-2.2-2.1-4.5-1.8-7.1
			c0.2-2.4,0.5-4.7,0.8-7.1c0-0.2,0-0.4,0-0.6c0,0-0.1,0-0.1,0c-0.1,0.2-0.2,0.3-0.2,0.5c-0.7,2.2-1.6,4.3-2.2,6.5
			c-1,3.6-1.5,7.4-1.2,11.2c0.3,4.1,2,7.7,3.7,11.3c0,0.1,0.1,0.1,0.1,0.2C8.9,35,7.2,40.7,7.2,46.8c0,18.1,14.7,32.8,32.8,32.8
			s32.8-14.7,32.8-32.8C72.8,40.6,71,34.8,68,29.8z M51.6,39.3c-0.5,0.6-6.8,2.5-7.2,2.3C44.7,41.1,50.9,39,51.6,39.3z M32.1,49.1
			c-0.4,0.3-6.7-1.5-7.3-2C25.3,46.8,31.6,48.6,32.1,49.1z M22.3,52l3.1-0.2l1.3,0.4c-0.1,0.2-0.1,0.4-0.1,0.6c0,1,0.8,1.9,1.9,1.9
			c0.9,0,1.6-0.6,1.8-1.4l0.1,0l2.4,1.9l-3.1,0.2l-4.9-1.5L22.3,52z M49.5,70.3c-2.3,1.4-4.9,2.1-7.5,2.6c-4.3,0.7-8.2-0.6-12-2.4
			c-0.1,0-0.2-0.1-0.3-0.2c-0.1-0.1-0.1-0.2-0.2-0.3c0.1,0,0.3-0.1,0.4-0.1c0.6,0.3,1.2,0.5,1.8,0.8c0.4,0.2,0.6,0.1,0.7-0.3
			c0.3-0.7,0.6-1.4,0.9-2.2c0.1,0,0.2,0,0.3,0c0,0.7-0.1,1.4-0.1,2.1c0,1,0,1,0.9,1.3c3.3,1.2,6.6,1,9.9,0.2c0.6-0.1,0.8-0.4,0.7-1
			c-0.2-0.8-0.2-1.7-0.3-2.5c0.1,0,0.1,0,0.2-0.1c0.3,0.6,0.5,1.2,0.8,1.8c0.5,1.3,0.5,1.3,1.8,0.7c0.6-0.3,1.2-0.7,1.8-1
			c0.2-0.1,0.4-0.1,0.6-0.2c0,0.1,0.1,0.1,0.1,0.2C49.9,70,49.7,70.2,49.5,70.3z M52.4,53.9l-4.9,1.5l-3.1-0.2l2.2-1.7
			c0.3,0.7,1,1.1,1.7,1.1c1,0,1.9-0.8,1.9-1.9c0-0.2,0-0.3-0.1-0.5l1.7-0.5l3.1,0.2L52.4,53.9z"/>
		<path d="M19.8,21L19.8,21C19.8,21,19.8,21,19.8,21C19.8,21,19.8,21,19.8,21z"/>
	</g>
	<g>
		<path class="st1" d="M50.1,69.9c-0.2,0.2-0.3,0.3-0.5,0.5c-2.3,1.4-4.9,2.1-7.5,2.6c-4.3,0.7-8.2-0.6-12-2.4
			c-0.1,0-0.2-0.1-0.3-0.2c-0.1-0.1-0.1-0.2-0.2-0.3c0.1,0,0.3-0.1,0.4-0.1c0.6,0.3,1.2,0.5,1.8,0.8c0.4,0.2,0.6,0.1,0.7-0.3
			c0.3-0.7,0.6-1.4,0.9-2.2c0.1,0,0.2,0,0.3,0c0,0.7-0.1,1.4-0.1,2.1c0,1,0,1,0.9,1.3c3.3,1.2,6.6,1,9.9,0.2c0.6-0.1,0.8-0.4,0.7-1
			c-0.2-0.8-0.2-1.7-0.3-2.5c0.1,0,0.1,0,0.2-0.1c0.3,0.6,0.5,1.2,0.8,1.8c0.5,1.3,0.5,1.3,1.8,0.7c0.6-0.3,1.2-0.7,1.8-1
			c0.2-0.1,0.4-0.1,0.6-0.2C50,69.7,50.1,69.8,50.1,69.9z"/>
		<path class="st1" d="M32.7,55.2l-3.1,0.2l-4.9-1.5L22.3,52l3.1-0.2l1.3,0.4c-0.1,0.2-0.1,0.4-0.1,0.6c0,1,0.8,1.9,1.9,1.9
			c0.9,0,1.6-0.6,1.8-1.4l0.1,0L32.7,55.2z"/>
		<path class="st1" d="M54.9,52l-2.4,1.9l-4.9,1.5l-3.1-0.2l2.2-1.7c0.3,0.7,1,1.1,1.7,1.1c1,0,1.9-0.8,1.9-1.9c0-0.2,0-0.3-0.1-0.5
			l1.7-0.5L54.9,52z"/>
		<g>
			<path class="st1" d="M32.1,49.1c-0.4,0.3-6.7-1.5-7.3-2C25.3,46.8,31.6,48.6,32.1,49.1z"/>
			<path class="st1" d="M51.6,39.3c-0.5,0.6-6.8,2.5-7.2,2.3C44.7,41.1,50.9,39,51.6,39.3z"/>
		</g>
	</g>
</g>
</svg>
