<?xml version="1.0" encoding="utf-8"?>
<!-- Generator: Adobe Illustrator 25.2.0, SVG Export Plug-In . SVG Version: 6.00 Build 0)  -->
<svg version="1.1" id="Layer_1" xmlns="http://www.w3.org/2000/svg" xmlns:xlink="http://www.w3.org/1999/xlink" x="0px" y="0px"
	 viewBox="0 0 80 80" style="enable-background:new 0 0 80 80;" xml:space="preserve">
<style type="text/css">
	.st0{fill:#070707;}
</style>
<g>
	<path class="st0" d="M68.7,35.5h-12c-5.8,0-10.4-4.7-10.4-10.4V13c0-5.8,4.7-10.4,10.4-10.4h12c5.8,0,10.4,4.7,10.4,10.4v12
		C79.1,30.8,74.4,35.5,68.7,35.5z"/>
	<path class="st0" d="M23.3,35.5h-12C5.6,35.5,0.9,30.8,0.9,25V13c0-5.8,4.7-10.4,10.4-10.4h12c5.8,0,10.4,4.7,10.4,10.4v12
		C33.8,30.8,29.1,35.5,23.3,35.5z"/>
	<path class="st0" d="M68.7,77.4h-12c-5.8,0-10.4-4.7-10.4-10.4V55c0-5.8,4.7-10.4,10.4-10.4h12c5.8,0,10.4,4.7,10.4,10.4v12
		C79.1,72.7,74.4,77.4,68.7,77.4z"/>
	<path class="st0" d="M23.3,77.4h-12C5.6,77.4,0.9,72.7,0.9,67V55c0-5.8,4.7-10.4,10.4-10.4h12c5.8,0,10.4,4.7,10.4,10.4v12
		C33.8,72.7,29.1,77.4,23.3,77.4z"/>
</g>
</svg>
