<?xml version="1.0" encoding="utf-8"?>
<!-- Generator: Adobe Illustrator 25.2.0, SVG Export Plug-In . SVG Version: 6.00 Build 0)  -->
<svg version="1.1" id="Layer_1" xmlns="http://www.w3.org/2000/svg" xmlns:xlink="http://www.w3.org/1999/xlink" x="0px" y="0px"
	 viewBox="0 0 80 80" style="enable-background:new 0 0 80 80;" xml:space="preserve">
<style type="text/css">
	.st0{fill:#070707;}
	.st1{fill:#FFFFFF;}
</style>
<path class="st0" d="M61.8,78.2H18.2c-9,0-16.4-7.3-16.4-16.4V18.2c0-9,7.3-16.4,16.4-16.4h43.6c9,0,16.4,7.3,16.4,16.4v43.6
	C78.2,70.9,70.9,78.2,61.8,78.2z"/>
<path class="st1" d="M41.1,66.4c-13.7,0-25.1-10.3-26.5-23.8c-1.5-14.2,8.5-27,22.6-29c0.1,0,0.3,0,0.4,0c0.9-0.1,1.5,0.2,1.8,0.8
	c0.3,0.7,0.2,1.3-0.4,1.9c-1,1-1.9,2.1-2.7,3.4C28.6,31.8,35.9,48.1,50,50.5c4.5,0.8,8.9,0.1,13-2c1.2-0.6,2.3-0.2,2.5,0.9
	c0.1,0.4,0,0.7-0.2,1.1c-4.2,9-11.2,14.2-21,15.7C43.2,66.4,42.1,66.4,41.1,66.4z"/>
</svg>
