<?xml version="1.0" encoding="utf-8"?>
<!-- Generator: Adobe Illustrator 25.2.0, SVG Export Plug-In . SVG Version: 6.00 Build 0)  -->
<svg version="1.1" id="Layer_1" xmlns="http://www.w3.org/2000/svg" xmlns:xlink="http://www.w3.org/1999/xlink" x="0px" y="0px"
	 viewBox="0 0 80 80" style="enable-background:new 0 0 80 80;" xml:space="preserve">
<path d="M32.6,3c3.9,0,7.8,0,11.7,0c0,0.1,0,0.3,0,0.4c0,9.3,0,18.6,0,27.9c0,0.1,0,0.1,0,0.2c0,0,0,0.1,0,0.2
	c0.1-0.1,0.2-0.2,0.2-0.3c1.1-1.2,2.2-2.4,3.3-3.6c0.1-0.1,0.2-0.2,0.4-0.2c4.2,0,8.5,0,12.7,0c0.1,0,0.2,0,0.3,0
	c0,10.4,0,20.9,0,31.3c0.1,0,0.2,0,0.3,0c1.9,0,3.8,0,5.6,0c0.1,0,0.2,0,0.3,0c0,3,0,6,0,9c-0.1,0-0.1,0-0.2,0c-1.9,0-3.9,0-5.8,0
	c-0.1,0-0.1,0-0.2,0c0,0.1,0,0.2,0,0.3c0,2.5,0,4.9,0,7.4c0,0.4,0,0.9,0,1.3c-3.9,0-7.8,0-11.7,0c0,0,0,0,0,0c0-2.9,0-5.8,0-8.7
	c0-0.1,0-0.1,0-0.2c-0.6,0-1.3,0-1.9,0c-0.6,0-1.3,0-1.9,0c-0.6,0-1.3,0-1.9,0c-0.6,0-1.3,0-1.9,0c-0.6,0-1.3,0-1.9,0
	c-0.6,0-1.3,0-1.9,0c-0.6,0-1.3,0-1.9,0c-0.6,0-1.2,0-1.9,0c-0.6,0-1.3,0-1.9,0c-0.6,0-1.3,0-1.9,0c-0.6,0-1.3,0-1.9,0s-1.3,0-1.9,0
	c-0.6,0-1.3,0-1.9,0s-1.3,0-1.9,0c-0.6,0-1.3,0-1.9,0c0-0.1,0-0.2,0-0.3c0-3.4,0-6.8,0-10.1c0-0.2,0.1-0.3,0.2-0.4
	c1.4-1.5,2.7-3,4.1-4.5c0.1-0.1,0.1-0.1,0.2-0.2c-4.3,0-8.6,0-12.9,0c-0.1-0.3,0-9.5,0-9.7c0.1,0,0.2,0,0.3,0c5.2,0,10.4,0,15.7,0
	c0.5,0,1.1-0.1,1.6-0.2c0.9-0.2,1.6-0.8,1.9-1.7c0-0.1,0.1-0.3,0.1-0.4c0.2-0.8,0.3-1.6,0.3-2.4c0-11.5,0-23,0-34.5
	C32.5,3.3,32.6,3.2,32.6,3z M49.4,39.6C49.4,39.6,49.4,39.6,49.4,39.6c-5.7,6.4-11.3,12.9-17,19.3c5.7,0,11.4,0,17,0
	C49.4,52.5,49.4,46.1,49.4,39.6z"/>
</svg>
