<?xml version="1.0" encoding="utf-8"?>
<!-- Generator: Adobe Illustrator 25.2.0, SVG Export Plug-In . SVG Version: 6.00 Build 0)  -->
<svg version="1.1" id="Layer_1" xmlns="http://www.w3.org/2000/svg" xmlns:xlink="http://www.w3.org/1999/xlink" x="0px" y="0px"
	 viewBox="0 0 80 80" style="enable-background:new 0 0 80 80;" xml:space="preserve">
<style type="text/css">
	.st0{fill:#7F7F7F;}
</style>
<path class="st0" d="M63.4,58.4c1-1.3,2-2.6,2.8-4.1c2.9-5.2,4.4-11,4.4-17.4c0-6.5-1.5-12.3-4.4-17.4c-2.9-5.2-7-9.2-12.1-12.1
	C49,4.6,43.2,3.1,36.8,3.1S24.7,4.6,19.5,7.4c-5.2,2.9-9.2,6.9-12.1,12.1C4.4,24.6,3,30.4,3,36.9c0,6.4,1.4,12.2,4.4,17.4
	c2.9,5.1,6.9,9.1,12.1,12c5.2,2.9,11,4.3,17.4,4.3s12.1-1.4,17.2-4.3c1.6-0.9,3.1-1.9,4.5-3.1l13.6,13.6L77,72L63.4,58.4z
	 M50.4,60.6c-4,2.3-8.6,3.4-13.6,3.4c-5,0-9.6-1.1-13.6-3.4c-4.1-2.3-7.3-5.5-9.6-9.6c-2.4-4.2-3.5-8.9-3.5-14.1
	c0-5.3,1.2-10.1,3.5-14.2c2.4-4.1,5.6-7.3,9.6-9.6c4.1-2.3,8.6-3.4,13.6-3.4c5,0,9.6,1.1,13.6,3.4c4,2.3,7.2,5.5,9.6,9.6
	c2.4,4.1,3.5,8.9,3.5,14.2c0,5.2-1.2,10-3.5,14.1C57.7,55.1,54.5,58.3,50.4,60.6z"/>
</svg>
