<?xml version="1.0" encoding="utf-8"?>
<!-- Generator: Adobe Illustrator 25.2.0, SVG Export Plug-In . SVG Version: 6.00 Build 0)  -->
<svg version="1.1" id="Layer_1" xmlns="http://www.w3.org/2000/svg" xmlns:xlink="http://www.w3.org/1999/xlink" x="0px" y="0px"
	 viewBox="0 0 80 80" style="enable-background:new 0 0 80 80;" xml:space="preserve">
<style type="text/css">
	.st0{fill:#070707;}
</style>
<g>
	<path class="st0" d="M9.9,48.1l60.2,0c4.6,0,8.3,3.7,8.3,8.3l0,8.4c0,4.6-3.7,8.3-8.3,8.3L9.9,73c-4.6,0-8.3-3.7-8.3-8.3l0-8.4
		C1.6,51.8,5.4,48.1,9.9,48.1z"/>
	<path class="st0" d="M9.9,7l60.2,0c4.6,0,8.3,3.7,8.3,8.3v8.4c0,4.6-3.7,8.3-8.3,8.3l-60.2,0c-4.6,0-8.3-3.7-8.3-8.3l0-8.4
		C1.6,10.7,5.4,7,9.9,7z"/>
</g>
</svg>
