<?xml version="1.0" encoding="utf-8"?>
<!-- Generator: Adobe Illustrator 25.2.0, SVG Export Plug-In . SVG Version: 6.00 Build 0)  -->
<svg version="1.1" id="Layer_1" xmlns="http://www.w3.org/2000/svg" xmlns:xlink="http://www.w3.org/1999/xlink" x="0px" y="0px"
	 viewBox="0 0 60 60" style="enable-background:new 0 0 60 60;" xml:space="preserve">
<style type="text/css">
	.st0{fill:#1E1E1E;}
</style>
<g id="primary_48_">
	<path class="st0" d="M38.9,59.8c-11.5,0-20.9-9.4-20.9-20.9s9.4-20.9,20.9-20.9s20.9,9.4,20.9,20.9S50.4,59.8,38.9,59.8z M38.9,24
		C30.7,24,24,30.7,24,38.9s6.7,14.9,14.9,14.9s14.9-6.7,14.9-14.9S47.2,24,38.9,24z M15.1,59.8H6.2c-3.3,0-6-2.7-6-6V6.2
		c0-3.3,2.7-6,6-6H33c0.8,0,1.5,0.3,2.1,0.9l6,6c1.2,1.2,1.2,3.1,0,4.2c-1.2,1.2-3.1,1.2-4.2,0l-5.1-5.1H6.2v47.7h8.9
		c1.6,0,3,1.3,3,3C18.1,58.5,16.7,59.8,15.1,59.8z M36,46.4c-0.5,0-1.1-0.1-1.6-0.4c-0.9-0.5-1.4-1.5-1.4-2.5v-8.9
		c0-1,0.5-2,1.4-2.5c0.9-0.5,2-0.6,2.9-0.1l8.9,4.5c1,0.5,1.6,1.5,1.6,2.7s-0.6,2.2-1.6,2.7l-8.9,4.5C36.9,46.3,36.4,46.4,36,46.4z"
		/>
</g>
</svg>
