<?xml version="1.0" encoding="utf-8"?>
<!-- Generator: Adobe Illustrator 25.2.0, SVG Export Plug-In . SVG Version: 6.00 Build 0)  -->
<svg version="1.1" id="Layer_1" xmlns="http://www.w3.org/2000/svg" xmlns:xlink="http://www.w3.org/1999/xlink" x="0px" y="0px"
	 viewBox="0 0 60 60" style="enable-background:new 0 0 60 60;" xml:space="preserve">
<style type="text/css">
	.st0{fill:#B70000;}
</style>
<g id="primary_9_">
	<path class="st0" d="M30,53.8c-6.8,0-13.1-0.2-18.8-0.6c-6.2-0.5-11-5.7-11-11.9V18.7c0-6.2,4.8-11.4,11-11.9
		C17.3,6.4,23.4,6.2,30,6.2c6.8,0,13.1,0.2,18.8,0.6c6.2,0.5,11,5.7,11,11.9v22.6c0,6.2-4.8,11.4-11,11.9
		C43.1,53.6,36.8,53.8,30,53.8z M30,12.1c-6.5,0-12.5,0.2-18.4,0.6c-3,0.2-5.4,2.9-5.4,5.9v22.6c0,3.1,2.4,5.7,5.5,6
		c5.5,0.4,11.7,0.6,18.3,0.6s12.8-0.2,18.3-0.6c3.1-0.2,5.5-2.9,5.5-5.9c0,0,0,0,0,0V18.7c0-3.1-2.4-5.7-5.5-5.9
		C42.8,12.3,36.6,12.1,30,12.1z M24,41.9c-0.5,0-1-0.1-1.5-0.4c-0.9-0.5-1.5-1.5-1.5-2.6V21.1c0-1.1,0.6-2.1,1.5-2.6
		c0.9-0.5,2.1-0.5,3,0l14.9,8.9c0.9,0.5,1.4,1.5,1.4,2.6c0,1-0.5,2-1.4,2.6l-14.9,8.9C25.1,41.7,24.6,41.9,24,41.9z M27,26.3v7.3
		l6.1-3.7L27,26.3z"/>
</g>
</svg>
